<svg width="323" height="306" viewBox="0 0 323 306" fill="none" xmlns="http://www.w3.org/2000/svg">
<g filter="url(#filter0_d_307_152921)">
<rect x="20.2012" y="16.8372" width="282" height="265" rx="6" fill="white" shape-rendering="crispEdges"/>
<path d="M60.3732 34.3272V43.3452C60.3732 44.4612 60.0312 45.3432 59.3472 45.9912C58.6752 46.6392 57.7872 46.9632 56.6832 46.9632C55.5792 46.9632 54.6852 46.6392 54.0012 45.9912C53.3292 45.3432 52.9932 44.4612 52.9932 43.3452H55.0632C55.0752 43.8972 55.2132 44.3352 55.4772 44.6592C55.7532 44.9832 56.1552 45.1452 56.6832 45.1452C57.2112 45.1452 57.6132 44.9832 57.8892 44.6592C58.1652 44.3232 58.3032 43.8852 58.3032 43.3452V34.3272H60.3732ZM63.0273 41.8332C63.0273 40.8372 63.2313 39.9552 63.6393 39.1872C64.0593 38.4192 64.6233 37.8252 65.3313 37.4052C66.0513 36.9732 66.8433 36.7572 67.7073 36.7572C68.4873 36.7572 69.1653 36.9132 69.7413 37.2252C70.3293 37.5252 70.7973 37.9032 71.1453 38.3592V36.9192H73.2153V46.8372H71.1453V45.3612C70.7973 45.8292 70.3233 46.2192 69.7233 46.5312C69.1233 46.8432 68.4393 46.9992 67.6713 46.9992C66.8193 46.9992 66.0393 46.7832 65.3313 46.3512C64.6233 45.9072 64.0593 45.2952 63.6393 44.5152C63.2313 43.7232 63.0273 42.8292 63.0273 41.8332ZM71.1453 41.8692C71.1453 41.1852 71.0013 40.5912 70.7133 40.0872C70.4373 39.5832 70.0713 39.1992 69.6153 38.9352C69.1593 38.6712 68.6673 38.5392 68.1393 38.5392C67.6113 38.5392 67.1193 38.6712 66.6633 38.9352C66.2073 39.1872 65.8353 39.5652 65.5473 40.0692C65.2713 40.5612 65.1333 41.1492 65.1333 41.8332C65.1333 42.5172 65.2713 43.1172 65.5473 43.6332C65.8353 44.1492 66.2073 44.5452 66.6633 44.8212C67.1313 45.0852 67.6233 45.2172 68.1393 45.2172C68.6673 45.2172 69.1593 45.0852 69.6153 44.8212C70.0713 44.5572 70.4373 44.1732 70.7133 43.6692C71.0013 43.1532 71.1453 42.5532 71.1453 41.8692ZM80.9145 36.7572C81.6945 36.7572 82.3905 36.9192 83.0025 37.2432C83.6265 37.5672 84.1125 38.0472 84.4605 38.6832C84.8085 39.3192 84.9825 40.0872 84.9825 40.9872V46.8372H82.9485V41.2932C82.9485 40.4052 82.7265 39.7272 82.2825 39.2592C81.8385 38.7792 81.2325 38.5392 80.4645 38.5392C79.6965 38.5392 79.0845 38.7792 78.6285 39.2592C78.1845 39.7272 77.9625 40.4052 77.9625 41.2932V46.8372H75.9105V36.9192H77.9625V38.0532C78.2985 37.6452 78.7245 37.3272 79.2405 37.0992C79.7685 36.8712 80.3265 36.7572 80.9145 36.7572ZM96.582 36.9192V46.8372H94.53V45.6672C94.206 46.0752 93.78 46.3992 93.252 46.6392C92.736 46.8672 92.184 46.9812 91.596 46.9812C90.816 46.9812 90.114 46.8192 89.49 46.4952C88.878 46.1712 88.392 45.6912 88.032 45.0552C87.684 44.4192 87.51 43.6512 87.51 42.7512V36.9192H89.544V42.4452C89.544 43.3332 89.766 44.0172 90.21 44.4972C90.654 44.9652 91.26 45.1992 92.028 45.1992C92.796 45.1992 93.402 44.9652 93.846 44.4972C94.302 44.0172 94.53 43.3332 94.53 42.4452V36.9192H96.582ZM98.6055 41.8332C98.6055 40.8372 98.8095 39.9552 99.2175 39.1872C99.6375 38.4192 100.201 37.8252 100.909 37.4052C101.629 36.9732 102.421 36.7572 103.285 36.7572C104.065 36.7572 104.743 36.9132 105.319 37.2252C105.907 37.5252 106.375 37.9032 106.723 38.3592V36.9192H108.793V46.8372H106.723V45.3612C106.375 45.8292 105.901 46.2192 105.301 46.5312C104.701 46.8432 104.017 46.9992 103.249 46.9992C102.397 46.9992 101.617 46.7832 100.909 46.3512C100.201 45.9072 99.6375 45.2952 99.2175 44.5152C98.8095 43.7232 98.6055 42.8292 98.6055 41.8332ZM106.723 41.8692C106.723 41.1852 106.579 40.5912 106.291 40.0872C106.015 39.5832 105.649 39.1992 105.193 38.9352C104.737 38.6712 104.245 38.5392 103.717 38.5392C103.189 38.5392 102.697 38.6712 102.241 38.9352C101.785 39.1872 101.413 39.5652 101.125 40.0692C100.849 40.5612 100.711 41.1492 100.711 41.8332C100.711 42.5172 100.849 43.1172 101.125 43.6332C101.413 44.1492 101.785 44.5452 102.241 44.8212C102.709 45.0852 103.201 45.2172 103.717 45.2172C104.245 45.2172 104.737 45.0852 105.193 44.8212C105.649 44.5572 106.015 44.1732 106.291 43.6692C106.579 43.1532 106.723 42.5532 106.723 41.8692ZM113.541 38.3592C113.841 37.8552 114.237 37.4652 114.729 37.1892C115.233 36.9012 115.827 36.7572 116.511 36.7572V38.8812H115.989C115.185 38.8812 114.573 39.0852 114.153 39.4932C113.745 39.9012 113.541 40.6092 113.541 41.6172V46.8372H111.489V36.9192H113.541V38.3592ZM127.325 36.9192L121.241 51.4992H119.117L121.133 46.6752L117.227 36.9192H119.513L122.303 44.4792L125.201 36.9192H127.325Z" fill="#333333"/>
<g opacity="0.7">
<path d="M65.1212 88.2372C65.5545 88.2372 65.9412 88.3272 66.2812 88.5072C66.6278 88.6872 66.8978 88.9538 67.0912 89.3072C67.2912 89.6605 67.3912 90.0872 67.3912 90.5872V93.8372H66.2612V90.7572C66.2612 90.2638 66.1378 89.8872 65.8912 89.6272C65.6445 89.3605 65.3078 89.2272 64.8812 89.2272C64.4545 89.2272 64.1145 89.3605 63.8612 89.6272C63.6145 89.8872 63.4912 90.2638 63.4912 90.7572V93.8372H62.3612V90.7572C62.3612 90.2638 62.2378 89.8872 61.9912 89.6272C61.7445 89.3605 61.4078 89.2272 60.9812 89.2272C60.5545 89.2272 60.2145 89.3605 59.9612 89.6272C59.7145 89.8872 59.5912 90.2638 59.5912 90.7572V93.8372H58.4512V88.3272H59.5912V88.9572C59.7778 88.7305 60.0145 88.5538 60.3012 88.4272C60.5878 88.3005 60.8945 88.2372 61.2212 88.2372C61.6612 88.2372 62.0545 88.3305 62.4012 88.5172C62.7478 88.7038 63.0145 88.9738 63.2012 89.3272C63.3678 88.9938 63.6278 88.7305 63.9812 88.5372C64.3345 88.3372 64.7145 88.2372 65.1212 88.2372Z" fill="#333333"/>
<path d="M95.9479 89.2572V92.3072C95.9479 92.5138 95.9945 92.6638 96.0879 92.7572C96.1879 92.8438 96.3545 92.8872 96.5879 92.8872H97.2879V93.8372H96.3879C95.8745 93.8372 95.4812 93.7172 95.2079 93.4772C94.9345 93.2372 94.7979 92.8472 94.7979 92.3072V89.2572H94.1479V88.3272H94.7979V86.9572H95.9479V88.3272H97.2879V89.2572H95.9479Z" fill="#333333"/>
<path d="M132.184 88.3272L130.474 93.8372H129.274L128.164 89.7672L127.054 93.8372H125.854L124.134 88.3272H125.294L126.444 92.7572L127.614 88.3272H128.804L129.924 92.7372L131.064 88.3272H132.184Z" fill="#333333"/>
<path d="M161.281 89.2572V92.3072C161.281 92.5138 161.328 92.6638 161.421 92.7572C161.521 92.8438 161.688 92.8872 161.921 92.8872H162.621V93.8372H161.721C161.208 93.8372 160.815 93.7172 160.541 93.4772C160.268 93.2372 160.131 92.8472 160.131 92.3072V89.2572H159.481V88.3272H160.131V86.9572H161.281V88.3272H162.621V89.2572H161.281Z" fill="#333333"/>
<path d="M194.928 89.2572H193.908V93.8372H192.758V89.2572H192.108V88.3272H192.758V87.9372C192.758 87.3038 192.925 86.8438 193.258 86.5572C193.598 86.2638 194.128 86.1172 194.848 86.1172V87.0672C194.501 87.0672 194.258 87.1338 194.118 87.2672C193.978 87.3938 193.908 87.6172 193.908 87.9372V88.3272H194.928V89.2572Z" fill="#333333"/>
<path d="M226.285 93.9272C225.851 93.9272 225.461 93.8505 225.115 93.6972C224.775 93.5372 224.505 93.3238 224.305 93.0572C224.105 92.7838 223.998 92.4805 223.985 92.1472H225.165C225.185 92.3805 225.295 92.5772 225.495 92.7372C225.701 92.8905 225.958 92.9672 226.265 92.9672C226.585 92.9672 226.831 92.9072 227.005 92.7872C227.185 92.6605 227.275 92.5005 227.275 92.3072C227.275 92.1005 227.175 91.9472 226.975 91.8472C226.781 91.7472 226.471 91.6372 226.045 91.5172C225.631 91.4038 225.295 91.2938 225.035 91.1872C224.775 91.0805 224.548 90.9172 224.355 90.6972C224.168 90.4772 224.075 90.1872 224.075 89.8272C224.075 89.5338 224.161 89.2672 224.335 89.0272C224.508 88.7805 224.755 88.5872 225.075 88.4472C225.401 88.3072 225.775 88.2372 226.195 88.2372C226.821 88.2372 227.325 88.3972 227.705 88.7172C228.091 89.0305 228.298 89.4605 228.325 90.0072H227.185C227.165 89.7605 227.065 89.5638 226.885 89.4172C226.705 89.2705 226.461 89.1972 226.155 89.1972C225.855 89.1972 225.625 89.2538 225.465 89.3672C225.305 89.4805 225.225 89.6305 225.225 89.8172C225.225 89.9638 225.278 90.0872 225.385 90.1872C225.491 90.2872 225.621 90.3672 225.775 90.4272C225.928 90.4805 226.155 90.5505 226.455 90.6372C226.855 90.7438 227.181 90.8538 227.435 90.9672C227.695 91.0738 227.918 91.2338 228.105 91.4472C228.291 91.6605 228.388 91.9438 228.395 92.2972C228.395 92.6105 228.308 92.8905 228.135 93.1372C227.961 93.3838 227.715 93.5772 227.395 93.7172C227.081 93.8572 226.711 93.9272 226.285 93.9272Z" fill="#333333"/>
<path d="M258.951 93.9272C258.518 93.9272 258.128 93.8505 257.781 93.6972C257.441 93.5372 257.171 93.3238 256.971 93.0572C256.771 92.7838 256.665 92.4805 256.651 92.1472H257.831C257.851 92.3805 257.961 92.5772 258.161 92.7372C258.368 92.8905 258.625 92.9672 258.931 92.9672C259.251 92.9672 259.498 92.9072 259.671 92.7872C259.851 92.6605 259.941 92.5005 259.941 92.3072C259.941 92.1005 259.841 91.9472 259.641 91.8472C259.448 91.7472 259.138 91.6372 258.711 91.5172C258.298 91.4038 257.961 91.2938 257.701 91.1872C257.441 91.0805 257.215 90.9172 257.021 90.6972C256.835 90.4772 256.741 90.1872 256.741 89.8272C256.741 89.5338 256.828 89.2672 257.001 89.0272C257.175 88.7805 257.421 88.5872 257.741 88.4472C258.068 88.3072 258.441 88.2372 258.861 88.2372C259.488 88.2372 259.991 88.3972 260.371 88.7172C260.758 89.0305 260.965 89.4605 260.991 90.0072H259.851C259.831 89.7605 259.731 89.5638 259.551 89.4172C259.371 89.2705 259.128 89.1972 258.821 89.1972C258.521 89.1972 258.291 89.2538 258.131 89.3672C257.971 89.4805 257.891 89.6305 257.891 89.8172C257.891 89.9638 257.945 90.0872 258.051 90.1872C258.158 90.2872 258.288 90.3672 258.441 90.4272C258.595 90.4805 258.821 90.5505 259.121 90.6372C259.521 90.7438 259.848 90.8538 260.101 90.9672C260.361 91.0738 260.585 91.2338 260.771 91.4472C260.958 91.6605 261.055 91.9438 261.061 92.2972C261.061 92.6105 260.975 92.8905 260.801 93.1372C260.628 93.3838 260.381 93.5772 260.061 93.7172C259.748 93.8572 259.378 93.9272 258.951 93.9272Z" fill="#333333"/>
</g>
<path d="M55.8012 123.097C55.8012 121.944 55.9945 121.044 56.3812 120.397C56.7745 119.744 57.4478 119.417 58.4012 119.417C59.3545 119.417 60.0245 119.744 60.4112 120.397C60.8045 121.044 61.0012 121.944 61.0012 123.097C61.0012 124.264 60.8045 125.177 60.4112 125.837C60.0245 126.49 59.3545 126.817 58.4012 126.817C57.4478 126.817 56.7745 126.49 56.3812 125.837C55.9945 125.177 55.8012 124.264 55.8012 123.097ZM59.8812 123.097C59.8812 122.557 59.8445 122.1 59.7712 121.727C59.7045 121.354 59.5645 121.05 59.3512 120.817C59.1378 120.577 58.8212 120.457 58.4012 120.457C57.9812 120.457 57.6645 120.577 57.4512 120.817C57.2378 121.05 57.0945 121.354 57.0212 121.727C56.9545 122.1 56.9212 122.557 56.9212 123.097C56.9212 123.657 56.9545 124.127 57.0212 124.507C57.0878 124.887 57.2278 125.194 57.4412 125.427C57.6612 125.66 57.9812 125.777 58.4012 125.777C58.8212 125.777 59.1378 125.66 59.3512 125.427C59.5712 125.194 59.7145 124.887 59.7812 124.507C59.8478 124.127 59.8812 123.657 59.8812 123.097ZM62.0574 120.587V119.547H64.1374V126.837H62.9874V120.587H62.0574Z" fill="#333333"/>
<rect x="83.5345" y="110.837" width="22" height="25" rx="11" fill="#F65D10"/>
<path d="M88.6345 123.097C88.6345 121.944 88.8278 121.044 89.2145 120.397C89.6078 119.744 90.2812 119.417 91.2345 119.417C92.1878 119.417 92.8578 119.744 93.2445 120.397C93.6378 121.044 93.8345 121.944 93.8345 123.097C93.8345 124.264 93.6378 125.177 93.2445 125.837C92.8578 126.49 92.1878 126.817 91.2345 126.817C90.2812 126.817 89.6078 126.49 89.2145 125.837C88.8278 125.177 88.6345 124.264 88.6345 123.097ZM92.7145 123.097C92.7145 122.557 92.6778 122.1 92.6045 121.727C92.5378 121.354 92.3978 121.05 92.1845 120.817C91.9712 120.577 91.6545 120.457 91.2345 120.457C90.8145 120.457 90.4978 120.577 90.2845 120.817C90.0712 121.05 89.9278 121.354 89.8545 121.727C89.7878 122.1 89.7545 122.557 89.7545 123.097C89.7545 123.657 89.7878 124.127 89.8545 124.507C89.9212 124.887 90.0612 125.194 90.2745 125.427C90.4945 125.66 90.8145 125.777 91.2345 125.777C91.6545 125.777 91.9712 125.66 92.1845 125.427C92.4045 125.194 92.5478 124.887 92.6145 124.507C92.6812 124.127 92.7145 123.657 92.7145 123.097ZM95.6707 125.287C96.3107 124.734 96.8141 124.28 97.1807 123.927C97.5541 123.567 97.8641 123.194 98.1107 122.807C98.3574 122.42 98.4807 122.034 98.4807 121.647C98.4807 121.247 98.3841 120.934 98.1907 120.707C98.0041 120.48 97.7074 120.367 97.3007 120.367C96.9074 120.367 96.6007 120.494 96.3807 120.747C96.1674 120.994 96.0541 121.327 96.0407 121.747H94.9407C94.9607 120.987 95.1874 120.407 95.6207 120.007C96.0607 119.6 96.6174 119.397 97.2907 119.397C98.0174 119.397 98.5841 119.597 98.9907 119.997C99.4041 120.397 99.6107 120.93 99.6107 121.597C99.6107 122.077 99.4874 122.54 99.2407 122.987C99.0007 123.427 98.7107 123.824 98.3707 124.177C98.0374 124.524 97.6107 124.927 97.0907 125.387L96.6407 125.787H99.8107V126.737H94.9507V125.907L95.6707 125.287Z" fill="white"/>
<path d="M122.468 123.097C122.468 121.944 122.661 121.044 123.048 120.397C123.441 119.744 124.115 119.417 125.068 119.417C126.021 119.417 126.691 119.744 127.078 120.397C127.471 121.044 127.668 121.944 127.668 123.097C127.668 124.264 127.471 125.177 127.078 125.837C126.691 126.49 126.021 126.817 125.068 126.817C124.115 126.817 123.441 126.49 123.048 125.837C122.661 125.177 122.468 124.264 122.468 123.097ZM126.548 123.097C126.548 122.557 126.511 122.1 126.438 121.727C126.371 121.354 126.231 121.05 126.018 120.817C125.805 120.577 125.488 120.457 125.068 120.457C124.648 120.457 124.331 120.577 124.118 120.817C123.905 121.05 123.761 121.354 123.688 121.727C123.621 122.1 123.588 122.557 123.588 123.097C123.588 123.657 123.621 124.127 123.688 124.507C123.755 124.887 123.895 125.194 124.108 125.427C124.328 125.66 124.648 125.777 125.068 125.777C125.488 125.777 125.805 125.66 126.018 125.427C126.238 125.194 126.381 124.887 126.448 124.507C126.515 124.127 126.548 123.657 126.548 123.097ZM128.854 121.347C128.894 120.727 129.131 120.244 129.564 119.897C130.004 119.55 130.564 119.377 131.244 119.377C131.711 119.377 132.114 119.46 132.454 119.627C132.794 119.794 133.051 120.02 133.224 120.307C133.397 120.594 133.484 120.917 133.484 121.277C133.484 121.69 133.374 122.044 133.154 122.337C132.934 122.63 132.671 122.827 132.364 122.927V122.967C132.757 123.087 133.064 123.307 133.284 123.627C133.504 123.94 133.614 124.344 133.614 124.837C133.614 125.23 133.524 125.58 133.344 125.887C133.164 126.194 132.897 126.437 132.544 126.617C132.191 126.79 131.767 126.877 131.274 126.877C130.554 126.877 129.961 126.694 129.494 126.327C129.034 125.954 128.787 125.42 128.754 124.727H129.854C129.881 125.08 130.017 125.37 130.264 125.597C130.511 125.817 130.844 125.927 131.264 125.927C131.671 125.927 131.984 125.817 132.204 125.597C132.424 125.37 132.534 125.08 132.534 124.727C132.534 124.26 132.384 123.93 132.084 123.737C131.791 123.537 131.337 123.437 130.724 123.437H130.464V122.497H130.734C131.274 122.49 131.684 122.4 131.964 122.227C132.251 122.054 132.394 121.78 132.394 121.407C132.394 121.087 132.291 120.834 132.084 120.647C131.877 120.454 131.584 120.357 131.204 120.357C130.831 120.357 130.541 120.454 130.334 120.647C130.127 120.834 130.004 121.067 129.964 121.347H128.854Z" fill="#333333"/>
<path d="M155.801 123.097C155.801 121.944 155.995 121.044 156.381 120.397C156.775 119.744 157.448 119.417 158.401 119.417C159.355 119.417 160.025 119.744 160.411 120.397C160.805 121.044 161.001 121.944 161.001 123.097C161.001 124.264 160.805 125.177 160.411 125.837C160.025 126.49 159.355 126.817 158.401 126.817C157.448 126.817 156.775 126.49 156.381 125.837C155.995 125.177 155.801 124.264 155.801 123.097ZM159.881 123.097C159.881 122.557 159.845 122.1 159.771 121.727C159.705 121.354 159.565 121.05 159.351 120.817C159.138 120.577 158.821 120.457 158.401 120.457C157.981 120.457 157.665 120.577 157.451 120.817C157.238 121.05 157.095 121.354 157.021 121.727C156.955 122.1 156.921 122.557 156.921 123.097C156.921 123.657 156.955 124.127 157.021 124.507C157.088 124.887 157.228 125.194 157.441 125.427C157.661 125.66 157.981 125.777 158.401 125.777C158.821 125.777 159.138 125.66 159.351 125.427C159.571 125.194 159.715 124.887 159.781 124.507C159.848 124.127 159.881 123.657 159.881 123.097ZM162.067 125.317V124.457L165.427 119.637H166.807V124.327H167.737V125.317H166.807V126.837H165.687V125.317H162.067ZM165.737 120.797L163.377 124.327H165.737V120.797Z" fill="#333333"/>
<path d="M189.134 123.097C189.134 121.944 189.328 121.044 189.714 120.397C190.108 119.744 190.781 119.417 191.734 119.417C192.688 119.417 193.358 119.744 193.744 120.397C194.138 121.044 194.334 121.944 194.334 123.097C194.334 124.264 194.138 125.177 193.744 125.837C193.358 126.49 192.688 126.817 191.734 126.817C190.781 126.817 190.108 126.49 189.714 125.837C189.328 125.177 189.134 124.264 189.134 123.097ZM193.214 123.097C193.214 122.557 193.178 122.1 193.104 121.727C193.038 121.354 192.898 121.05 192.684 120.817C192.471 120.577 192.154 120.457 191.734 120.457C191.314 120.457 190.998 120.577 190.784 120.817C190.571 121.05 190.428 121.354 190.354 121.727C190.288 122.1 190.254 122.557 190.254 123.097C190.254 123.657 190.288 124.127 190.354 124.507C190.421 124.887 190.561 125.194 190.774 125.427C190.994 125.66 191.314 125.777 191.734 125.777C192.154 125.777 192.471 125.66 192.684 125.427C192.904 125.194 193.048 124.887 193.114 124.507C193.181 124.127 193.214 123.657 193.214 123.097ZM200.241 120.527H196.891V122.517C197.031 122.33 197.237 122.174 197.511 122.047C197.791 121.92 198.087 121.857 198.401 121.857C198.961 121.857 199.414 121.977 199.761 122.217C200.114 122.457 200.364 122.76 200.511 123.127C200.664 123.494 200.741 123.88 200.741 124.287C200.741 124.78 200.644 125.22 200.451 125.607C200.264 125.987 199.981 126.287 199.601 126.507C199.227 126.727 198.767 126.837 198.221 126.837C197.494 126.837 196.911 126.657 196.471 126.297C196.031 125.937 195.767 125.46 195.681 124.867H196.791C196.864 125.18 197.027 125.43 197.281 125.617C197.534 125.797 197.851 125.887 198.231 125.887C198.704 125.887 199.057 125.744 199.291 125.457C199.531 125.17 199.651 124.79 199.651 124.317C199.651 123.837 199.531 123.47 199.291 123.217C199.051 122.957 198.697 122.827 198.231 122.827C197.904 122.827 197.627 122.91 197.401 123.077C197.181 123.237 197.021 123.457 196.921 123.737H195.841V119.527H200.241V120.527Z" fill="#333333"/>
<path d="M222.468 123.097C222.468 121.944 222.661 121.044 223.048 120.397C223.441 119.744 224.114 119.417 225.068 119.417C226.021 119.417 226.691 119.744 227.078 120.397C227.471 121.044 227.668 121.944 227.668 123.097C227.668 124.264 227.471 125.177 227.078 125.837C226.691 126.49 226.021 126.817 225.068 126.817C224.114 126.817 223.441 126.49 223.048 125.837C222.661 125.177 222.468 124.264 222.468 123.097ZM226.548 123.097C226.548 122.557 226.511 122.1 226.438 121.727C226.371 121.354 226.231 121.05 226.018 120.817C225.804 120.577 225.488 120.457 225.068 120.457C224.648 120.457 224.331 120.577 224.118 120.817C223.904 121.05 223.761 121.354 223.688 121.727C223.621 122.1 223.588 122.557 223.588 123.097C223.588 123.657 223.621 124.127 223.688 124.507C223.754 124.887 223.894 125.194 224.108 125.427C224.328 125.66 224.648 125.777 225.068 125.777C225.488 125.777 225.804 125.66 226.018 125.427C226.238 125.194 226.381 124.887 226.448 124.507C226.514 124.127 226.548 123.657 226.548 123.097ZM232.794 121.237C232.721 120.93 232.587 120.7 232.394 120.547C232.201 120.394 231.931 120.317 231.584 120.317C231.057 120.317 230.664 120.52 230.404 120.927C230.144 121.327 230.007 121.994 229.994 122.927C230.167 122.634 230.421 122.407 230.754 122.247C231.087 122.087 231.447 122.007 231.834 122.007C232.274 122.007 232.661 122.104 232.994 122.297C233.334 122.484 233.597 122.757 233.784 123.117C233.977 123.477 234.074 123.907 234.074 124.407C234.074 124.874 233.981 125.29 233.794 125.657C233.614 126.024 233.344 126.314 232.984 126.527C232.624 126.734 232.191 126.837 231.684 126.837C230.997 126.837 230.457 126.687 230.064 126.387C229.677 126.08 229.404 125.65 229.244 125.097C229.091 124.544 229.014 123.854 229.014 123.027C229.014 120.587 229.874 119.367 231.594 119.367C232.261 119.367 232.784 119.547 233.164 119.907C233.551 120.267 233.777 120.71 233.844 121.237H232.794ZM231.584 122.967C231.177 122.967 230.831 123.09 230.544 123.337C230.264 123.577 230.124 123.927 230.124 124.387C230.124 124.847 230.254 125.214 230.514 125.487C230.781 125.754 231.151 125.887 231.624 125.887C232.044 125.887 232.374 125.757 232.614 125.497C232.861 125.237 232.984 124.89 232.984 124.457C232.984 124.004 232.864 123.644 232.624 123.377C232.391 123.104 232.044 122.967 231.584 122.967Z" fill="#333333"/>
<path d="M255.801 123.097C255.801 121.944 255.995 121.044 256.381 120.397C256.775 119.744 257.448 119.417 258.401 119.417C259.355 119.417 260.025 119.744 260.411 120.397C260.805 121.044 261.001 121.944 261.001 123.097C261.001 124.264 260.805 125.177 260.411 125.837C260.025 126.49 259.355 126.817 258.401 126.817C257.448 126.817 256.775 126.49 256.381 125.837C255.995 125.177 255.801 124.264 255.801 123.097ZM259.881 123.097C259.881 122.557 259.845 122.1 259.771 121.727C259.705 121.354 259.565 121.05 259.351 120.817C259.138 120.577 258.821 120.457 258.401 120.457C257.981 120.457 257.665 120.577 257.451 120.817C257.238 121.05 257.095 121.354 257.021 121.727C256.955 122.1 256.921 122.557 256.921 123.097C256.921 123.657 256.955 124.127 257.021 124.507C257.088 124.887 257.228 125.194 257.441 125.427C257.661 125.66 257.981 125.777 258.401 125.777C258.821 125.777 259.138 125.66 259.351 125.427C259.571 125.194 259.715 124.887 259.781 124.507C259.848 124.127 259.881 123.657 259.881 123.097ZM266.827 120.427L264.047 126.837H262.897L265.707 120.547H262.007V119.577H266.827V120.427Z" fill="#333333"/>
<path d="M55.8012 156.097C55.8012 154.944 55.9945 154.044 56.3812 153.397C56.7745 152.744 57.4478 152.417 58.4012 152.417C59.3545 152.417 60.0245 152.744 60.4112 153.397C60.8045 154.044 61.0012 154.944 61.0012 156.097C61.0012 157.264 60.8045 158.177 60.4112 158.837C60.0245 159.49 59.3545 159.817 58.4012 159.817C57.4478 159.817 56.7745 159.49 56.3812 158.837C55.9945 158.177 55.8012 157.264 55.8012 156.097ZM59.8812 156.097C59.8812 155.557 59.8445 155.1 59.7712 154.727C59.7045 154.354 59.5645 154.05 59.3512 153.817C59.1378 153.577 58.8212 153.457 58.4012 153.457C57.9812 153.457 57.6645 153.577 57.4512 153.817C57.2378 154.05 57.0945 154.354 57.0212 154.727C56.9545 155.1 56.9212 155.557 56.9212 156.097C56.9212 156.657 56.9545 157.127 57.0212 157.507C57.0878 157.887 57.2278 158.194 57.4412 158.427C57.6612 158.66 57.9812 158.777 58.4012 158.777C58.8212 158.777 59.1378 158.66 59.3512 158.427C59.5712 158.194 59.7145 157.887 59.7812 157.507C59.8478 157.127 59.8812 156.657 59.8812 156.097ZM63.4374 156.027C62.7441 155.68 62.3974 155.134 62.3974 154.387C62.3974 154.027 62.4874 153.697 62.6674 153.397C62.8474 153.097 63.1174 152.86 63.4774 152.687C63.8374 152.507 64.2774 152.417 64.7974 152.417C65.3108 152.417 65.7474 152.507 66.1074 152.687C66.4741 152.86 66.7474 153.097 66.9274 153.397C67.1074 153.697 67.1974 154.027 67.1974 154.387C67.1974 154.76 67.1008 155.09 66.9074 155.377C66.7208 155.657 66.4708 155.874 66.1574 156.027C66.5374 156.167 66.8374 156.397 67.0574 156.717C67.2774 157.03 67.3874 157.4 67.3874 157.827C67.3874 158.26 67.2774 158.644 67.0574 158.977C66.8374 159.31 66.5308 159.567 66.1374 159.747C65.7441 159.927 65.2974 160.017 64.7974 160.017C64.2974 160.017 63.8508 159.927 63.4574 159.747C63.0708 159.567 62.7674 159.31 62.5474 158.977C62.3274 158.644 62.2174 158.26 62.2174 157.827C62.2174 157.394 62.3274 157.02 62.5474 156.707C62.7674 156.394 63.0641 156.167 63.4374 156.027ZM66.1074 154.527C66.1074 154.154 65.9908 153.867 65.7574 153.667C65.5241 153.467 65.2041 153.367 64.7974 153.367C64.3974 153.367 64.0808 153.467 63.8474 153.667C63.6141 153.867 63.4974 154.157 63.4974 154.537C63.4974 154.87 63.6174 155.144 63.8574 155.357C64.1041 155.564 64.4174 155.667 64.7974 155.667C65.1774 155.667 65.4908 155.56 65.7374 155.347C65.9841 155.134 66.1074 154.86 66.1074 154.527ZM64.7974 156.527C64.3574 156.527 63.9974 156.637 63.7174 156.857C63.4441 157.07 63.3074 157.38 63.3074 157.787C63.3074 158.167 63.4408 158.477 63.7074 158.717C63.9741 158.95 64.3374 159.067 64.7974 159.067C65.2508 159.067 65.6074 158.947 65.8674 158.707C66.1341 158.467 66.2674 158.16 66.2674 157.787C66.2674 157.387 66.1308 157.077 65.8574 156.857C65.5908 156.637 65.2374 156.527 64.7974 156.527Z" fill="#333333"/>
<path d="M89.1345 156.097C89.1345 154.944 89.3278 154.044 89.7145 153.397C90.1078 152.744 90.7812 152.417 91.7345 152.417C92.6878 152.417 93.3578 152.744 93.7445 153.397C94.1378 154.044 94.3345 154.944 94.3345 156.097C94.3345 157.264 94.1378 158.177 93.7445 158.837C93.3578 159.49 92.6878 159.817 91.7345 159.817C90.7812 159.817 90.1078 159.49 89.7145 158.837C89.3278 158.177 89.1345 157.264 89.1345 156.097ZM93.2145 156.097C93.2145 155.557 93.1778 155.1 93.1045 154.727C93.0378 154.354 92.8978 154.05 92.6845 153.817C92.4712 153.577 92.1545 153.457 91.7345 153.457C91.3145 153.457 90.9978 153.577 90.7845 153.817C90.5712 154.05 90.4278 154.354 90.3545 154.727C90.2878 155.1 90.2545 155.557 90.2545 156.097C90.2545 156.657 90.2878 157.127 90.3545 157.507C90.4212 157.887 90.5612 158.194 90.7745 158.427C90.9945 158.66 91.3145 158.777 91.7345 158.777C92.1545 158.777 92.4712 158.66 92.6845 158.427C92.9045 158.194 93.0478 157.887 93.1145 157.507C93.1812 157.127 93.2145 156.657 93.2145 156.097ZM96.9607 157.857C97.0274 158.19 97.1707 158.444 97.3907 158.617C97.6107 158.79 97.9074 158.877 98.2807 158.877C98.7541 158.877 99.1007 158.69 99.3207 158.317C99.5407 157.944 99.6507 157.307 99.6507 156.407C99.4907 156.634 99.2641 156.81 98.9707 156.937C98.6841 157.057 98.3707 157.117 98.0307 157.117C97.5974 157.117 97.2041 157.03 96.8507 156.857C96.4974 156.677 96.2174 156.414 96.0107 156.067C95.8107 155.714 95.7107 155.287 95.7107 154.787C95.7107 154.054 95.9241 153.47 96.3507 153.037C96.7841 152.597 97.3774 152.377 98.1307 152.377C99.0374 152.377 99.6807 152.68 100.061 153.287C100.447 153.887 100.641 154.81 100.641 156.057C100.641 156.917 100.567 157.62 100.421 158.167C100.281 158.714 100.034 159.127 99.6807 159.407C99.3274 159.687 98.8374 159.827 98.2107 159.827C97.4974 159.827 96.9474 159.64 96.5607 159.267C96.1741 158.894 95.9574 158.424 95.9107 157.857H96.9607ZM98.2307 156.157C98.6307 156.157 98.9441 156.034 99.1707 155.787C99.4041 155.534 99.5207 155.2 99.5207 154.787C99.5207 154.327 99.3974 153.97 99.1507 153.717C98.9107 153.457 98.5807 153.327 98.1607 153.327C97.7407 153.327 97.4074 153.46 97.1607 153.727C96.9207 153.987 96.8007 154.33 96.8007 154.757C96.8007 155.164 96.9174 155.5 97.1507 155.767C97.3907 156.027 97.7507 156.157 98.2307 156.157Z" fill="#333333"/>
<path d="M122.318 153.587V152.547H124.398V159.837H123.248V153.587H122.318ZM125.964 156.097C125.964 154.944 126.157 154.044 126.544 153.397C126.937 152.744 127.611 152.417 128.564 152.417C129.517 152.417 130.187 152.744 130.574 153.397C130.967 154.044 131.164 154.944 131.164 156.097C131.164 157.264 130.967 158.177 130.574 158.837C130.187 159.49 129.517 159.817 128.564 159.817C127.611 159.817 126.937 159.49 126.544 158.837C126.157 158.177 125.964 157.264 125.964 156.097ZM130.044 156.097C130.044 155.557 130.007 155.1 129.934 154.727C129.867 154.354 129.727 154.05 129.514 153.817C129.301 153.577 128.984 153.457 128.564 153.457C128.144 153.457 127.827 153.577 127.614 153.817C127.401 154.05 127.257 154.354 127.184 154.727C127.117 155.1 127.084 155.557 127.084 156.097C127.084 156.657 127.117 157.127 127.184 157.507C127.251 157.887 127.391 158.194 127.604 158.427C127.824 158.66 128.144 158.777 128.564 158.777C128.984 158.777 129.301 158.66 129.514 158.427C129.734 158.194 129.877 157.887 129.944 157.507C130.011 157.127 130.044 156.657 130.044 156.097Z" fill="#333333"/>
<path d="M155.651 153.587V152.547H157.731V159.837H156.581V153.587H155.651ZM159.147 153.587V152.547H161.227V159.837H160.077V153.587H159.147Z" fill="#333333"/>
<path d="M188.984 153.587V152.547H191.064V159.837H189.914V153.587H188.984ZM193.261 158.287C193.901 157.734 194.404 157.28 194.771 156.927C195.144 156.567 195.454 156.194 195.701 155.807C195.947 155.42 196.071 155.034 196.071 154.647C196.071 154.247 195.974 153.934 195.781 153.707C195.594 153.48 195.297 153.367 194.891 153.367C194.497 153.367 194.191 153.494 193.971 153.747C193.757 153.994 193.644 154.327 193.631 154.747H192.531C192.551 153.987 192.777 153.407 193.211 153.007C193.651 152.6 194.207 152.397 194.881 152.397C195.607 152.397 196.174 152.597 196.581 152.997C196.994 153.397 197.201 153.93 197.201 154.597C197.201 155.077 197.077 155.54 196.831 155.987C196.591 156.427 196.301 156.824 195.961 157.177C195.627 157.524 195.201 157.927 194.681 158.387L194.231 158.787H197.401V159.737H192.541V158.907L193.261 158.287Z" fill="#333333"/>
<path d="M222.318 153.587V152.547H224.398V159.837H223.248V153.587H222.318ZM225.944 154.347C225.984 153.727 226.221 153.244 226.654 152.897C227.094 152.55 227.654 152.377 228.334 152.377C228.801 152.377 229.204 152.46 229.544 152.627C229.884 152.794 230.141 153.02 230.314 153.307C230.487 153.594 230.574 153.917 230.574 154.277C230.574 154.69 230.464 155.044 230.244 155.337C230.024 155.63 229.761 155.827 229.454 155.927V155.967C229.847 156.087 230.154 156.307 230.374 156.627C230.594 156.94 230.704 157.344 230.704 157.837C230.704 158.23 230.614 158.58 230.434 158.887C230.254 159.194 229.987 159.437 229.634 159.617C229.281 159.79 228.857 159.877 228.364 159.877C227.644 159.877 227.051 159.694 226.584 159.327C226.124 158.954 225.877 158.42 225.844 157.727H226.944C226.971 158.08 227.107 158.37 227.354 158.597C227.601 158.817 227.934 158.927 228.354 158.927C228.761 158.927 229.074 158.817 229.294 158.597C229.514 158.37 229.624 158.08 229.624 157.727C229.624 157.26 229.474 156.93 229.174 156.737C228.881 156.537 228.427 156.437 227.814 156.437H227.554V155.497H227.824C228.364 155.49 228.774 155.4 229.054 155.227C229.341 155.054 229.484 154.78 229.484 154.407C229.484 154.087 229.381 153.834 229.174 153.647C228.967 153.454 228.674 153.357 228.294 153.357C227.921 153.357 227.631 153.454 227.424 153.647C227.217 153.834 227.094 154.067 227.054 154.347H225.944Z" fill="#333333"/>
<path d="M255.651 153.587V152.547H257.731V159.837H256.581V153.587H255.651ZM259.157 158.317V157.457L262.517 152.637H263.897V157.327H264.827V158.317H263.897V159.837H262.777V158.317H259.157ZM262.827 153.797L260.467 157.327H262.827V153.797Z" fill="#333333"/>
<path d="M55.6512 186.587V185.547H57.7312V192.837H56.5812V186.587H55.6512ZM63.9973 186.527H60.6473V188.517C60.7873 188.33 60.9939 188.174 61.2673 188.047C61.5473 187.92 61.8439 187.857 62.1573 187.857C62.7173 187.857 63.1706 187.977 63.5173 188.217C63.8706 188.457 64.1206 188.76 64.2673 189.127C64.4206 189.494 64.4973 189.88 64.4973 190.287C64.4973 190.78 64.4006 191.22 64.2073 191.607C64.0206 191.987 63.7373 192.287 63.3573 192.507C62.9839 192.727 62.5239 192.837 61.9773 192.837C61.2506 192.837 60.6673 192.657 60.2273 192.297C59.7873 191.937 59.5239 191.46 59.4373 190.867H60.5473C60.6206 191.18 60.7839 191.43 61.0373 191.617C61.2906 191.797 61.6073 191.887 61.9873 191.887C62.4606 191.887 62.8139 191.744 63.0473 191.457C63.2873 191.17 63.4073 190.79 63.4073 190.317C63.4073 189.837 63.2873 189.47 63.0473 189.217C62.8073 188.957 62.4539 188.827 61.9873 188.827C61.6606 188.827 61.3839 188.91 61.1573 189.077C60.9373 189.237 60.7773 189.457 60.6773 189.737H59.5973V185.527H63.9973V186.527Z" fill="#333333"/>
<path d="M88.9845 186.587V185.547H91.0645V192.837H89.9145V186.587H88.9845ZM96.5506 187.237C96.4772 186.93 96.3439 186.7 96.1506 186.547C95.9572 186.394 95.6872 186.317 95.3406 186.317C94.8139 186.317 94.4206 186.52 94.1606 186.927C93.9006 187.327 93.7639 187.994 93.7506 188.927C93.9239 188.634 94.1772 188.407 94.5106 188.247C94.8439 188.087 95.2039 188.007 95.5906 188.007C96.0306 188.007 96.4172 188.104 96.7506 188.297C97.0906 188.484 97.3539 188.757 97.5406 189.117C97.7339 189.477 97.8306 189.907 97.8306 190.407C97.8306 190.874 97.7372 191.29 97.5506 191.657C97.3706 192.024 97.1006 192.314 96.7406 192.527C96.3806 192.734 95.9472 192.837 95.4406 192.837C94.7539 192.837 94.2139 192.687 93.8206 192.387C93.4339 192.08 93.1606 191.65 93.0006 191.097C92.8472 190.544 92.7706 189.854 92.7706 189.027C92.7706 186.587 93.6306 185.367 95.3506 185.367C96.0172 185.367 96.5406 185.547 96.9206 185.907C97.3072 186.267 97.5339 186.71 97.6006 187.237H96.5506ZM95.3406 188.967C94.9339 188.967 94.5872 189.09 94.3006 189.337C94.0206 189.577 93.8806 189.927 93.8806 190.387C93.8806 190.847 94.0106 191.214 94.2706 191.487C94.5372 191.754 94.9072 191.887 95.3806 191.887C95.8006 191.887 96.1306 191.757 96.3706 191.497C96.6172 191.237 96.7406 190.89 96.7406 190.457C96.7406 190.004 96.6206 189.644 96.3806 189.377C96.1472 189.104 95.8006 188.967 95.3406 188.967Z" fill="#333333"/>
<path d="M122.318 186.587V185.547H124.398V192.837H123.248V186.587H122.318ZM130.584 186.427L127.804 192.837H126.654L129.464 186.547H125.764V185.577H130.584V186.427Z" fill="#333333"/>
<path d="M155.651 186.587V185.547H157.731V192.837H156.581V186.587H155.651ZM160.527 189.027C159.834 188.68 159.487 188.134 159.487 187.387C159.487 187.027 159.577 186.697 159.757 186.397C159.937 186.097 160.207 185.86 160.567 185.687C160.927 185.507 161.367 185.417 161.887 185.417C162.401 185.417 162.837 185.507 163.197 185.687C163.564 185.86 163.837 186.097 164.017 186.397C164.197 186.697 164.287 187.027 164.287 187.387C164.287 187.76 164.191 188.09 163.997 188.377C163.811 188.657 163.561 188.874 163.247 189.027C163.627 189.167 163.927 189.397 164.147 189.717C164.367 190.03 164.477 190.4 164.477 190.827C164.477 191.26 164.367 191.644 164.147 191.977C163.927 192.31 163.621 192.567 163.227 192.747C162.834 192.927 162.387 193.017 161.887 193.017C161.387 193.017 160.941 192.927 160.547 192.747C160.161 192.567 159.857 192.31 159.637 191.977C159.417 191.644 159.307 191.26 159.307 190.827C159.307 190.394 159.417 190.02 159.637 189.707C159.857 189.394 160.154 189.167 160.527 189.027ZM163.197 187.527C163.197 187.154 163.081 186.867 162.847 186.667C162.614 186.467 162.294 186.367 161.887 186.367C161.487 186.367 161.171 186.467 160.937 186.667C160.704 186.867 160.587 187.157 160.587 187.537C160.587 187.87 160.707 188.144 160.947 188.357C161.194 188.564 161.507 188.667 161.887 188.667C162.267 188.667 162.581 188.56 162.827 188.347C163.074 188.134 163.197 187.86 163.197 187.527ZM161.887 189.527C161.447 189.527 161.087 189.637 160.807 189.857C160.534 190.07 160.397 190.38 160.397 190.787C160.397 191.167 160.531 191.477 160.797 191.717C161.064 191.95 161.427 192.067 161.887 192.067C162.341 192.067 162.697 191.947 162.957 191.707C163.224 191.467 163.357 191.16 163.357 190.787C163.357 190.387 163.221 190.077 162.947 189.857C162.681 189.637 162.327 189.527 161.887 189.527Z" fill="#333333"/>
<path d="M188.984 186.587V185.547H191.064V192.837H189.914V186.587H188.984ZM194.051 190.857C194.117 191.19 194.261 191.444 194.481 191.617C194.701 191.79 194.997 191.877 195.371 191.877C195.844 191.877 196.191 191.69 196.411 191.317C196.631 190.944 196.741 190.307 196.741 189.407C196.581 189.634 196.354 189.81 196.061 189.937C195.774 190.057 195.461 190.117 195.121 190.117C194.687 190.117 194.294 190.03 193.941 189.857C193.587 189.677 193.307 189.414 193.101 189.067C192.901 188.714 192.801 188.287 192.801 187.787C192.801 187.054 193.014 186.47 193.441 186.037C193.874 185.597 194.467 185.377 195.221 185.377C196.127 185.377 196.771 185.68 197.151 186.287C197.537 186.887 197.731 187.81 197.731 189.057C197.731 189.917 197.657 190.62 197.511 191.167C197.371 191.714 197.124 192.127 196.771 192.407C196.417 192.687 195.927 192.827 195.301 192.827C194.587 192.827 194.037 192.64 193.651 192.267C193.264 191.894 193.047 191.424 193.001 190.857H194.051ZM195.321 189.157C195.721 189.157 196.034 189.034 196.261 188.787C196.494 188.534 196.611 188.2 196.611 187.787C196.611 187.327 196.487 186.97 196.241 186.717C196.001 186.457 195.671 186.327 195.251 186.327C194.831 186.327 194.497 186.46 194.251 186.727C194.011 186.987 193.891 187.33 193.891 187.757C193.891 188.164 194.007 188.5 194.241 188.767C194.481 189.027 194.841 189.157 195.321 189.157Z" fill="#333333"/>
<path d="M223.098 191.287C223.738 190.734 224.241 190.28 224.608 189.927C224.981 189.567 225.291 189.194 225.538 188.807C225.784 188.42 225.908 188.034 225.908 187.647C225.908 187.247 225.811 186.934 225.618 186.707C225.431 186.48 225.134 186.367 224.728 186.367C224.334 186.367 224.028 186.494 223.808 186.747C223.594 186.994 223.481 187.327 223.468 187.747H222.368C222.388 186.987 222.614 186.407 223.048 186.007C223.488 185.6 224.044 185.397 224.718 185.397C225.444 185.397 226.011 185.597 226.418 185.997C226.831 186.397 227.038 186.93 227.038 187.597C227.038 188.077 226.914 188.54 226.668 188.987C226.428 189.427 226.138 189.824 225.798 190.177C225.464 190.524 225.038 190.927 224.518 191.387L224.068 191.787H227.238V192.737H222.378V191.907L223.098 191.287ZM228.239 189.097C228.239 187.944 228.433 187.044 228.819 186.397C229.213 185.744 229.886 185.417 230.839 185.417C231.793 185.417 232.463 185.744 232.849 186.397C233.243 187.044 233.439 187.944 233.439 189.097C233.439 190.264 233.243 191.177 232.849 191.837C232.463 192.49 231.793 192.817 230.839 192.817C229.886 192.817 229.213 192.49 228.819 191.837C228.433 191.177 228.239 190.264 228.239 189.097ZM232.319 189.097C232.319 188.557 232.283 188.1 232.209 187.727C232.143 187.354 232.003 187.05 231.789 186.817C231.576 186.577 231.259 186.457 230.839 186.457C230.419 186.457 230.103 186.577 229.889 186.817C229.676 187.05 229.533 187.354 229.459 187.727C229.393 188.1 229.359 188.557 229.359 189.097C229.359 189.657 229.393 190.127 229.459 190.507C229.526 190.887 229.666 191.194 229.879 191.427C230.099 191.66 230.419 191.777 230.839 191.777C231.259 191.777 231.576 191.66 231.789 191.427C232.009 191.194 232.153 190.887 232.219 190.507C232.286 190.127 232.319 189.657 232.319 189.097Z" fill="#333333"/>
<path d="M256.431 191.287C257.071 190.734 257.575 190.28 257.941 189.927C258.315 189.567 258.625 189.194 258.871 188.807C259.118 188.42 259.241 188.034 259.241 187.647C259.241 187.247 259.145 186.934 258.951 186.707C258.765 186.48 258.468 186.367 258.061 186.367C257.668 186.367 257.361 186.494 257.141 186.747C256.928 186.994 256.815 187.327 256.801 187.747H255.701C255.721 186.987 255.948 186.407 256.381 186.007C256.821 185.6 257.378 185.397 258.051 185.397C258.778 185.397 259.345 185.597 259.751 185.997C260.165 186.397 260.371 186.93 260.371 187.597C260.371 188.077 260.248 188.54 260.001 188.987C259.761 189.427 259.471 189.824 259.131 190.177C258.798 190.524 258.371 190.927 257.851 191.387L257.401 191.787H260.571V192.737H255.711V191.907L256.431 191.287ZM261.423 186.587V185.547H263.503V192.837H262.353V186.587H261.423Z" fill="#333333"/>
<path d="M56.4312 224.287C57.0712 223.734 57.5745 223.28 57.9412 222.927C58.3145 222.567 58.6245 222.194 58.8712 221.807C59.1178 221.42 59.2412 221.034 59.2412 220.647C59.2412 220.247 59.1445 219.934 58.9512 219.707C58.7645 219.48 58.4678 219.367 58.0612 219.367C57.6678 219.367 57.3612 219.494 57.1412 219.747C56.9278 219.994 56.8145 220.327 56.8012 220.747H55.7012C55.7212 219.987 55.9478 219.407 56.3812 219.007C56.8212 218.6 57.3778 218.397 58.0512 218.397C58.7778 218.397 59.3445 218.597 59.7512 218.997C60.1645 219.397 60.3712 219.93 60.3712 220.597C60.3712 221.077 60.2478 221.54 60.0012 221.987C59.7612 222.427 59.4712 222.824 59.1312 223.177C58.7978 223.524 58.3712 223.927 57.8512 224.387L57.4012 224.787H60.5712V225.737H55.7112V224.907L56.4312 224.287ZM62.2027 224.287C62.8427 223.734 63.346 223.28 63.7127 222.927C64.086 222.567 64.396 222.194 64.6427 221.807C64.8893 221.42 65.0127 221.034 65.0127 220.647C65.0127 220.247 64.916 219.934 64.7227 219.707C64.536 219.48 64.2393 219.367 63.8327 219.367C63.4393 219.367 63.1327 219.494 62.9127 219.747C62.6993 219.994 62.586 220.327 62.5727 220.747H61.4727C61.4927 219.987 61.7193 219.407 62.1527 219.007C62.5927 218.6 63.1493 218.397 63.8227 218.397C64.5493 218.397 65.116 218.597 65.5227 218.997C65.936 219.397 66.1427 219.93 66.1427 220.597C66.1427 221.077 66.0193 221.54 65.7727 221.987C65.5327 222.427 65.2427 222.824 64.9027 223.177C64.5693 223.524 64.1427 223.927 63.6227 224.387L63.1727 224.787H66.3427V225.737H61.4827V224.907L62.2027 224.287Z" fill="#333333"/>
<path d="M89.7645 224.287C90.4045 223.734 90.9078 223.28 91.2745 222.927C91.6478 222.567 91.9578 222.194 92.2045 221.807C92.4512 221.42 92.5745 221.034 92.5745 220.647C92.5745 220.247 92.4778 219.934 92.2845 219.707C92.0978 219.48 91.8012 219.367 91.3945 219.367C91.0012 219.367 90.6945 219.494 90.4745 219.747C90.2612 219.994 90.1478 220.327 90.1345 220.747H89.0345C89.0545 219.987 89.2812 219.407 89.7145 219.007C90.1545 218.6 90.7112 218.397 91.3845 218.397C92.1112 218.397 92.6778 218.597 93.0845 218.997C93.4978 219.397 93.7045 219.93 93.7045 220.597C93.7045 221.077 93.5812 221.54 93.3345 221.987C93.0945 222.427 92.8045 222.824 92.4645 223.177C92.1312 223.524 91.7045 223.927 91.1845 224.387L90.7345 224.787H93.9045V225.737H89.0445V224.907L89.7645 224.287ZM94.886 220.347C94.926 219.727 95.1626 219.244 95.596 218.897C96.036 218.55 96.596 218.377 97.276 218.377C97.7426 218.377 98.146 218.46 98.486 218.627C98.826 218.794 99.0826 219.02 99.256 219.307C99.4293 219.594 99.516 219.917 99.516 220.277C99.516 220.69 99.406 221.044 99.186 221.337C98.966 221.63 98.7026 221.827 98.396 221.927V221.967C98.7893 222.087 99.096 222.307 99.316 222.627C99.536 222.94 99.646 223.344 99.646 223.837C99.646 224.23 99.556 224.58 99.376 224.887C99.196 225.194 98.9293 225.437 98.576 225.617C98.2226 225.79 97.7993 225.877 97.306 225.877C96.586 225.877 95.9926 225.694 95.526 225.327C95.066 224.954 94.8193 224.42 94.786 223.727H95.886C95.9126 224.08 96.0493 224.37 96.296 224.597C96.5426 224.817 96.876 224.927 97.296 224.927C97.7026 224.927 98.016 224.817 98.236 224.597C98.456 224.37 98.566 224.08 98.566 223.727C98.566 223.26 98.416 222.93 98.116 222.737C97.8226 222.537 97.3693 222.437 96.756 222.437H96.496V221.497H96.766C97.306 221.49 97.716 221.4 97.996 221.227C98.2826 221.054 98.426 220.78 98.426 220.407C98.426 220.087 98.3226 219.834 98.116 219.647C97.9093 219.454 97.616 219.357 97.236 219.357C96.8626 219.357 96.5726 219.454 96.366 219.647C96.1593 219.834 96.036 220.067 95.996 220.347H94.886Z" fill="#333333"/>
<path d="M123.098 224.287C123.738 223.734 124.241 223.28 124.608 222.927C124.981 222.567 125.291 222.194 125.538 221.807C125.785 221.42 125.908 221.034 125.908 220.647C125.908 220.247 125.811 219.934 125.618 219.707C125.431 219.48 125.135 219.367 124.728 219.367C124.335 219.367 124.028 219.494 123.808 219.747C123.595 219.994 123.481 220.327 123.468 220.747H122.368C122.388 219.987 122.615 219.407 123.048 219.007C123.488 218.6 124.045 218.397 124.718 218.397C125.445 218.397 126.011 218.597 126.418 218.997C126.831 219.397 127.038 219.93 127.038 220.597C127.038 221.077 126.915 221.54 126.668 221.987C126.428 222.427 126.138 222.824 125.798 223.177C125.465 223.524 125.038 223.927 124.518 224.387L124.068 224.787H127.238V225.737H122.378V224.907L123.098 224.287ZM128.099 224.317V223.457L131.459 218.637H132.839V223.327H133.769V224.317H132.839V225.837H131.719V224.317H128.099ZM131.769 219.797L129.409 223.327H131.769V219.797Z" fill="#333333"/>
<path d="M156.431 224.287C157.071 223.734 157.575 223.28 157.941 222.927C158.315 222.567 158.625 222.194 158.871 221.807C159.118 221.42 159.241 221.034 159.241 220.647C159.241 220.247 159.145 219.934 158.951 219.707C158.765 219.48 158.468 219.367 158.061 219.367C157.668 219.367 157.361 219.494 157.141 219.747C156.928 219.994 156.815 220.327 156.801 220.747H155.701C155.721 219.987 155.948 219.407 156.381 219.007C156.821 218.6 157.378 218.397 158.051 218.397C158.778 218.397 159.345 218.597 159.751 218.997C160.165 219.397 160.371 219.93 160.371 220.597C160.371 221.077 160.248 221.54 160.001 221.987C159.761 222.427 159.471 222.824 159.131 223.177C158.798 223.524 158.371 223.927 157.851 224.387L157.401 224.787H160.571V225.737H155.711V224.907L156.431 224.287ZM166.273 219.527H162.923V221.517C163.063 221.33 163.269 221.174 163.543 221.047C163.823 220.92 164.119 220.857 164.433 220.857C164.993 220.857 165.446 220.977 165.793 221.217C166.146 221.457 166.396 221.76 166.543 222.127C166.696 222.494 166.773 222.88 166.773 223.287C166.773 223.78 166.676 224.22 166.483 224.607C166.296 224.987 166.013 225.287 165.633 225.507C165.259 225.727 164.799 225.837 164.253 225.837C163.526 225.837 162.943 225.657 162.503 225.297C162.063 224.937 161.799 224.46 161.713 223.867H162.823C162.896 224.18 163.059 224.43 163.313 224.617C163.566 224.797 163.883 224.887 164.263 224.887C164.736 224.887 165.089 224.744 165.323 224.457C165.563 224.17 165.683 223.79 165.683 223.317C165.683 222.837 165.563 222.47 165.323 222.217C165.083 221.957 164.729 221.827 164.263 221.827C163.936 221.827 163.659 221.91 163.433 222.077C163.213 222.237 163.053 222.457 162.953 222.737H161.873V218.527H166.273V219.527Z" fill="#333333"/>
<path d="M189.764 224.287C190.404 223.734 190.908 223.28 191.274 222.927C191.648 222.567 191.958 222.194 192.204 221.807C192.451 221.42 192.574 221.034 192.574 220.647C192.574 220.247 192.478 219.934 192.284 219.707C192.098 219.48 191.801 219.367 191.394 219.367C191.001 219.367 190.694 219.494 190.474 219.747C190.261 219.994 190.148 220.327 190.134 220.747H189.034C189.054 219.987 189.281 219.407 189.714 219.007C190.154 218.6 190.711 218.397 191.384 218.397C192.111 218.397 192.678 218.597 193.084 218.997C193.498 219.397 193.704 219.93 193.704 220.597C193.704 221.077 193.581 221.54 193.334 221.987C193.094 222.427 192.804 222.824 192.464 223.177C192.131 223.524 191.704 223.927 191.184 224.387L190.734 224.787H193.904V225.737H189.044V224.907L189.764 224.287ZM198.826 220.237C198.753 219.93 198.619 219.7 198.426 219.547C198.233 219.394 197.963 219.317 197.616 219.317C197.089 219.317 196.696 219.52 196.436 219.927C196.176 220.327 196.039 220.994 196.026 221.927C196.199 221.634 196.453 221.407 196.786 221.247C197.119 221.087 197.479 221.007 197.866 221.007C198.306 221.007 198.693 221.104 199.026 221.297C199.366 221.484 199.629 221.757 199.816 222.117C200.009 222.477 200.106 222.907 200.106 223.407C200.106 223.874 200.013 224.29 199.826 224.657C199.646 225.024 199.376 225.314 199.016 225.527C198.656 225.734 198.223 225.837 197.716 225.837C197.029 225.837 196.489 225.687 196.096 225.387C195.709 225.08 195.436 224.65 195.276 224.097C195.123 223.544 195.046 222.854 195.046 222.027C195.046 219.587 195.906 218.367 197.626 218.367C198.293 218.367 198.816 218.547 199.196 218.907C199.583 219.267 199.809 219.71 199.876 220.237H198.826ZM197.616 221.967C197.209 221.967 196.863 222.09 196.576 222.337C196.296 222.577 196.156 222.927 196.156 223.387C196.156 223.847 196.286 224.214 196.546 224.487C196.813 224.754 197.183 224.887 197.656 224.887C198.076 224.887 198.406 224.757 198.646 224.497C198.893 224.237 199.016 223.89 199.016 223.457C199.016 223.004 198.896 222.644 198.656 222.377C198.423 222.104 198.076 221.967 197.616 221.967Z" fill="#333333"/>
<path d="M223.098 224.287C223.738 223.734 224.241 223.28 224.608 222.927C224.981 222.567 225.291 222.194 225.538 221.807C225.784 221.42 225.908 221.034 225.908 220.647C225.908 220.247 225.811 219.934 225.618 219.707C225.431 219.48 225.134 219.367 224.728 219.367C224.334 219.367 224.028 219.494 223.808 219.747C223.594 219.994 223.481 220.327 223.468 220.747H222.368C222.388 219.987 222.614 219.407 223.048 219.007C223.488 218.6 224.044 218.397 224.718 218.397C225.444 218.397 226.011 218.597 226.418 218.997C226.831 219.397 227.038 219.93 227.038 220.597C227.038 221.077 226.914 221.54 226.668 221.987C226.428 222.427 226.138 222.824 225.798 223.177C225.464 223.524 225.038 223.927 224.518 224.387L224.068 224.787H227.238V225.737H222.378V224.907L223.098 224.287ZM232.859 219.427L230.079 225.837H228.929L231.739 219.547H228.039V218.577H232.859V219.427Z" fill="#333333"/>
<path d="M256.431 224.287C257.071 223.734 257.575 223.28 257.941 222.927C258.315 222.567 258.625 222.194 258.871 221.807C259.118 221.42 259.241 221.034 259.241 220.647C259.241 220.247 259.145 219.934 258.951 219.707C258.765 219.48 258.468 219.367 258.061 219.367C257.668 219.367 257.361 219.494 257.141 219.747C256.928 219.994 256.815 220.327 256.801 220.747H255.701C255.721 219.987 255.948 219.407 256.381 219.007C256.821 218.6 257.378 218.397 258.051 218.397C258.778 218.397 259.345 218.597 259.751 218.997C260.165 219.397 260.371 219.93 260.371 220.597C260.371 221.077 260.248 221.54 260.001 221.987C259.761 222.427 259.471 222.824 259.131 223.177C258.798 223.524 258.371 223.927 257.851 224.387L257.401 224.787H260.571V225.737H255.711V224.907L256.431 224.287ZM262.803 222.027C262.109 221.68 261.763 221.134 261.763 220.387C261.763 220.027 261.853 219.697 262.033 219.397C262.213 219.097 262.483 218.86 262.843 218.687C263.203 218.507 263.643 218.417 264.163 218.417C264.676 218.417 265.113 218.507 265.473 218.687C265.839 218.86 266.113 219.097 266.293 219.397C266.473 219.697 266.563 220.027 266.563 220.387C266.563 220.76 266.466 221.09 266.273 221.377C266.086 221.657 265.836 221.874 265.523 222.027C265.903 222.167 266.203 222.397 266.423 222.717C266.643 223.03 266.753 223.4 266.753 223.827C266.753 224.26 266.643 224.644 266.423 224.977C266.203 225.31 265.896 225.567 265.503 225.747C265.109 225.927 264.663 226.017 264.163 226.017C263.663 226.017 263.216 225.927 262.823 225.747C262.436 225.567 262.133 225.31 261.913 224.977C261.693 224.644 261.583 224.26 261.583 223.827C261.583 223.394 261.693 223.02 261.913 222.707C262.133 222.394 262.429 222.167 262.803 222.027ZM265.473 220.527C265.473 220.154 265.356 219.867 265.123 219.667C264.889 219.467 264.569 219.367 264.163 219.367C263.763 219.367 263.446 219.467 263.213 219.667C262.979 219.867 262.863 220.157 262.863 220.537C262.863 220.87 262.983 221.144 263.223 221.357C263.469 221.564 263.783 221.667 264.163 221.667C264.543 221.667 264.856 221.56 265.103 221.347C265.349 221.134 265.473 220.86 265.473 220.527ZM264.163 222.527C263.723 222.527 263.363 222.637 263.083 222.857C262.809 223.07 262.673 223.38 262.673 223.787C262.673 224.167 262.806 224.477 263.073 224.717C263.339 224.95 263.703 225.067 264.163 225.067C264.616 225.067 264.973 224.947 265.233 224.707C265.499 224.467 265.633 224.16 265.633 223.787C265.633 223.387 265.496 223.077 265.223 222.857C264.956 222.637 264.603 222.527 264.163 222.527Z" fill="#333333"/>
<path d="M56.4312 257.287C57.0712 256.734 57.5745 256.28 57.9412 255.927C58.3145 255.567 58.6245 255.194 58.8712 254.807C59.1178 254.42 59.2412 254.034 59.2412 253.647C59.2412 253.247 59.1445 252.934 58.9512 252.707C58.7645 252.48 58.4678 252.367 58.0612 252.367C57.6678 252.367 57.3612 252.494 57.1412 252.747C56.9278 252.994 56.8145 253.327 56.8012 253.747H55.7012C55.7212 252.987 55.9478 252.407 56.3812 252.007C56.8212 251.6 57.3778 251.397 58.0512 251.397C58.7778 251.397 59.3445 251.597 59.7512 251.997C60.1645 252.397 60.3712 252.93 60.3712 253.597C60.3712 254.077 60.2478 254.54 60.0012 254.987C59.7612 255.427 59.4712 255.824 59.1312 256.177C58.7978 256.524 58.3712 256.927 57.8512 257.387L57.4012 257.787H60.5712V258.737H55.7112V257.907L56.4312 257.287ZM62.9927 256.857C63.0593 257.19 63.2027 257.444 63.4227 257.617C63.6427 257.79 63.9393 257.877 64.3127 257.877C64.786 257.877 65.1327 257.69 65.3527 257.317C65.5727 256.944 65.6827 256.307 65.6827 255.407C65.5227 255.634 65.296 255.81 65.0027 255.937C64.716 256.057 64.4027 256.117 64.0627 256.117C63.6293 256.117 63.236 256.03 62.8827 255.857C62.5293 255.677 62.2493 255.414 62.0427 255.067C61.8427 254.714 61.7427 254.287 61.7427 253.787C61.7427 253.054 61.956 252.47 62.3827 252.037C62.816 251.597 63.4093 251.377 64.1627 251.377C65.0693 251.377 65.7127 251.68 66.0927 252.287C66.4793 252.887 66.6727 253.81 66.6727 255.057C66.6727 255.917 66.5993 256.62 66.4527 257.167C66.3127 257.714 66.066 258.127 65.7127 258.407C65.3593 258.687 64.8693 258.827 64.2427 258.827C63.5293 258.827 62.9793 258.64 62.5927 258.267C62.206 257.894 61.9893 257.424 61.9427 256.857H62.9927ZM64.2627 255.157C64.6627 255.157 64.976 255.034 65.2027 254.787C65.436 254.534 65.5527 254.2 65.5527 253.787C65.5527 253.327 65.4293 252.97 65.1827 252.717C64.9427 252.457 64.6127 252.327 64.1927 252.327C63.7727 252.327 63.4393 252.46 63.1927 252.727C62.9527 252.987 62.8327 253.33 62.8327 253.757C62.8327 254.164 62.9493 254.5 63.1827 254.767C63.4227 255.027 63.7827 255.157 64.2627 255.157Z" fill="#333333"/>
<path d="M89.1145 253.347C89.1545 252.727 89.3912 252.244 89.8245 251.897C90.2645 251.55 90.8245 251.377 91.5045 251.377C91.9712 251.377 92.3745 251.46 92.7145 251.627C93.0545 251.794 93.3112 252.02 93.4845 252.307C93.6578 252.594 93.7445 252.917 93.7445 253.277C93.7445 253.69 93.6345 254.044 93.4145 254.337C93.1945 254.63 92.9312 254.827 92.6245 254.927V254.967C93.0178 255.087 93.3245 255.307 93.5445 255.627C93.7645 255.94 93.8745 256.344 93.8745 256.837C93.8745 257.23 93.7845 257.58 93.6045 257.887C93.4245 258.194 93.1578 258.437 92.8045 258.617C92.4512 258.79 92.0278 258.877 91.5345 258.877C90.8145 258.877 90.2212 258.694 89.7545 258.327C89.2945 257.954 89.0478 257.42 89.0145 256.727H90.1145C90.1412 257.08 90.2778 257.37 90.5245 257.597C90.7712 257.817 91.1045 257.927 91.5245 257.927C91.9312 257.927 92.2445 257.817 92.4645 257.597C92.6845 257.37 92.7945 257.08 92.7945 256.727C92.7945 256.26 92.6445 255.93 92.3445 255.737C92.0512 255.537 91.5978 255.437 90.9845 255.437H90.7245V254.497H90.9945C91.5345 254.49 91.9445 254.4 92.2245 254.227C92.5112 254.054 92.6545 253.78 92.6545 253.407C92.6545 253.087 92.5512 252.834 92.3445 252.647C92.1378 252.454 91.8445 252.357 91.4645 252.357C91.0912 252.357 90.8012 252.454 90.5945 252.647C90.3878 252.834 90.2645 253.067 90.2245 253.347H89.1145ZM95.072 255.097C95.072 253.944 95.2653 253.044 95.652 252.397C96.0453 251.744 96.7187 251.417 97.672 251.417C98.6253 251.417 99.2953 251.744 99.682 252.397C100.075 253.044 100.272 253.944 100.272 255.097C100.272 256.264 100.075 257.177 99.682 257.837C99.2953 258.49 98.6253 258.817 97.672 258.817C96.7187 258.817 96.0453 258.49 95.652 257.837C95.2653 257.177 95.072 256.264 95.072 255.097ZM99.152 255.097C99.152 254.557 99.1153 254.1 99.042 253.727C98.9753 253.354 98.8353 253.05 98.622 252.817C98.4087 252.577 98.092 252.457 97.672 252.457C97.252 252.457 96.9353 252.577 96.722 252.817C96.5087 253.05 96.3653 253.354 96.292 253.727C96.2253 254.1 96.192 254.557 96.192 255.097C96.192 255.657 96.2253 256.127 96.292 256.507C96.3587 256.887 96.4987 257.194 96.712 257.427C96.932 257.66 97.252 257.777 97.672 257.777C98.092 257.777 98.4087 257.66 98.622 257.427C98.842 257.194 98.9853 256.887 99.052 256.507C99.1187 256.127 99.152 255.657 99.152 255.097Z" fill="#333333"/>
<path d="M122.448 253.347C122.488 252.727 122.725 252.244 123.158 251.897C123.598 251.55 124.158 251.377 124.838 251.377C125.305 251.377 125.708 251.46 126.048 251.627C126.388 251.794 126.645 252.02 126.818 252.307C126.991 252.594 127.078 252.917 127.078 253.277C127.078 253.69 126.968 254.044 126.748 254.337C126.528 254.63 126.265 254.827 125.958 254.927V254.967C126.351 255.087 126.658 255.307 126.878 255.627C127.098 255.94 127.208 256.344 127.208 256.837C127.208 257.23 127.118 257.58 126.938 257.887C126.758 258.194 126.491 258.437 126.138 258.617C125.785 258.79 125.361 258.877 124.868 258.877C124.148 258.877 123.555 258.694 123.088 258.327C122.628 257.954 122.381 257.42 122.348 256.727H123.448C123.475 257.08 123.611 257.37 123.858 257.597C124.105 257.817 124.438 257.927 124.858 257.927C125.265 257.927 125.578 257.817 125.798 257.597C126.018 257.37 126.128 257.08 126.128 256.727C126.128 256.26 125.978 255.93 125.678 255.737C125.385 255.537 124.931 255.437 124.318 255.437H124.058V254.497H124.328C124.868 254.49 125.278 254.4 125.558 254.227C125.845 254.054 125.988 253.78 125.988 253.407C125.988 253.087 125.885 252.834 125.678 252.647C125.471 252.454 125.178 252.357 124.798 252.357C124.425 252.357 124.135 252.454 123.928 252.647C123.721 252.834 123.598 253.067 123.558 253.347H122.448ZM128.255 252.587V251.547H130.335V258.837H129.185V252.587H128.255Z" fill="#333333"/>
<g opacity="0.3">
<path d="M155.801 255.097C155.801 253.944 155.995 253.044 156.381 252.397C156.775 251.744 157.448 251.417 158.401 251.417C159.355 251.417 160.025 251.744 160.411 252.397C160.805 253.044 161.001 253.944 161.001 255.097C161.001 256.264 160.805 257.177 160.411 257.837C160.025 258.49 159.355 258.817 158.401 258.817C157.448 258.817 156.775 258.49 156.381 257.837C155.995 257.177 155.801 256.264 155.801 255.097ZM159.881 255.097C159.881 254.557 159.845 254.1 159.771 253.727C159.705 253.354 159.565 253.05 159.351 252.817C159.138 252.577 158.821 252.457 158.401 252.457C157.981 252.457 157.665 252.577 157.451 252.817C157.238 253.05 157.095 253.354 157.021 253.727C156.955 254.1 156.921 254.557 156.921 255.097C156.921 255.657 156.955 256.127 157.021 256.507C157.088 256.887 157.228 257.194 157.441 257.427C157.661 257.66 157.981 257.777 158.401 257.777C158.821 257.777 159.138 257.66 159.351 257.427C159.571 257.194 159.715 256.887 159.781 256.507C159.848 256.127 159.881 255.657 159.881 255.097ZM162.057 252.587V251.547H164.137V258.837H162.987V252.587H162.057Z" fill="#333333"/>
</g>
<g opacity="0.3">
<path d="M189.134 255.097C189.134 253.944 189.328 253.044 189.714 252.397C190.108 251.744 190.781 251.417 191.734 251.417C192.688 251.417 193.358 251.744 193.744 252.397C194.138 253.044 194.334 253.944 194.334 255.097C194.334 256.264 194.138 257.177 193.744 257.837C193.358 258.49 192.688 258.817 191.734 258.817C190.781 258.817 190.108 258.49 189.714 257.837C189.328 257.177 189.134 256.264 189.134 255.097ZM193.214 255.097C193.214 254.557 193.178 254.1 193.104 253.727C193.038 253.354 192.898 253.05 192.684 252.817C192.471 252.577 192.154 252.457 191.734 252.457C191.314 252.457 190.998 252.577 190.784 252.817C190.571 253.05 190.428 253.354 190.354 253.727C190.288 254.1 190.254 254.557 190.254 255.097C190.254 255.657 190.288 256.127 190.354 256.507C190.421 256.887 190.561 257.194 190.774 257.427C190.994 257.66 191.314 257.777 191.734 257.777C192.154 257.777 192.471 257.66 192.684 257.427C192.904 257.194 193.048 256.887 193.114 256.507C193.181 256.127 193.214 255.657 193.214 255.097ZM196.171 257.287C196.811 256.734 197.314 256.28 197.681 255.927C198.054 255.567 198.364 255.194 198.611 254.807C198.857 254.42 198.981 254.034 198.981 253.647C198.981 253.247 198.884 252.934 198.691 252.707C198.504 252.48 198.207 252.367 197.801 252.367C197.407 252.367 197.101 252.494 196.881 252.747C196.667 252.994 196.554 253.327 196.541 253.747H195.441C195.461 252.987 195.687 252.407 196.121 252.007C196.561 251.6 197.117 251.397 197.791 251.397C198.517 251.397 199.084 251.597 199.491 251.997C199.904 252.397 200.111 252.93 200.111 253.597C200.111 254.077 199.987 254.54 199.741 254.987C199.501 255.427 199.211 255.824 198.871 256.177C198.537 256.524 198.111 256.927 197.591 257.387L197.141 257.787H200.311V258.737H195.451V257.907L196.171 257.287Z" fill="#333333"/>
</g>
<g opacity="0.3">
<path d="M222.468 255.097C222.468 253.944 222.661 253.044 223.048 252.397C223.441 251.744 224.114 251.417 225.068 251.417C226.021 251.417 226.691 251.744 227.078 252.397C227.471 253.044 227.668 253.944 227.668 255.097C227.668 256.264 227.471 257.177 227.078 257.837C226.691 258.49 226.021 258.817 225.068 258.817C224.114 258.817 223.441 258.49 223.048 257.837C222.661 257.177 222.468 256.264 222.468 255.097ZM226.548 255.097C226.548 254.557 226.511 254.1 226.438 253.727C226.371 253.354 226.231 253.05 226.018 252.817C225.804 252.577 225.488 252.457 225.068 252.457C224.648 252.457 224.331 252.577 224.118 252.817C223.904 253.05 223.761 253.354 223.688 253.727C223.621 254.1 223.588 254.557 223.588 255.097C223.588 255.657 223.621 256.127 223.688 256.507C223.754 256.887 223.894 257.194 224.108 257.427C224.328 257.66 224.648 257.777 225.068 257.777C225.488 257.777 225.804 257.66 226.018 257.427C226.238 257.194 226.381 256.887 226.448 256.507C226.514 256.127 226.548 255.657 226.548 255.097ZM228.854 253.347C228.894 252.727 229.131 252.244 229.564 251.897C230.004 251.55 230.564 251.377 231.244 251.377C231.711 251.377 232.114 251.46 232.454 251.627C232.794 251.794 233.051 252.02 233.224 252.307C233.397 252.594 233.484 252.917 233.484 253.277C233.484 253.69 233.374 254.044 233.154 254.337C232.934 254.63 232.671 254.827 232.364 254.927V254.967C232.757 255.087 233.064 255.307 233.284 255.627C233.504 255.94 233.614 256.344 233.614 256.837C233.614 257.23 233.524 257.58 233.344 257.887C233.164 258.194 232.897 258.437 232.544 258.617C232.191 258.79 231.767 258.877 231.274 258.877C230.554 258.877 229.961 258.694 229.494 258.327C229.034 257.954 228.787 257.42 228.754 256.727H229.854C229.881 257.08 230.017 257.37 230.264 257.597C230.511 257.817 230.844 257.927 231.264 257.927C231.671 257.927 231.984 257.817 232.204 257.597C232.424 257.37 232.534 257.08 232.534 256.727C232.534 256.26 232.384 255.93 232.084 255.737C231.791 255.537 231.337 255.437 230.724 255.437H230.464V254.497H230.734C231.274 254.49 231.684 254.4 231.964 254.227C232.251 254.054 232.394 253.78 232.394 253.407C232.394 253.087 232.291 252.834 232.084 252.647C231.877 252.454 231.584 252.357 231.204 252.357C230.831 252.357 230.541 252.454 230.334 252.647C230.127 252.834 230.004 253.067 229.964 253.347H228.854Z" fill="#333333"/>
</g>
<g opacity="0.3">
<path d="M255.801 255.097C255.801 253.944 255.995 253.044 256.381 252.397C256.775 251.744 257.448 251.417 258.401 251.417C259.355 251.417 260.025 251.744 260.411 252.397C260.805 253.044 261.001 253.944 261.001 255.097C261.001 256.264 260.805 257.177 260.411 257.837C260.025 258.49 259.355 258.817 258.401 258.817C257.448 258.817 256.775 258.49 256.381 257.837C255.995 257.177 255.801 256.264 255.801 255.097ZM259.881 255.097C259.881 254.557 259.845 254.1 259.771 253.727C259.705 253.354 259.565 253.05 259.351 252.817C259.138 252.577 258.821 252.457 258.401 252.457C257.981 252.457 257.665 252.577 257.451 252.817C257.238 253.05 257.095 253.354 257.021 253.727C256.955 254.1 256.921 254.557 256.921 255.097C256.921 255.657 256.955 256.127 257.021 256.507C257.088 256.887 257.228 257.194 257.441 257.427C257.661 257.66 257.981 257.777 258.401 257.777C258.821 257.777 259.138 257.66 259.351 257.427C259.571 257.194 259.715 256.887 259.781 256.507C259.848 256.127 259.881 255.657 259.881 255.097ZM262.067 257.317V256.457L265.427 251.637H266.807V256.327H267.737V257.317H266.807V258.837H265.687V257.317H262.067ZM265.737 252.797L263.377 256.327H265.737V252.797Z" fill="#333333"/>
</g>
</g>
<defs>
<filter id="filter0_d_307_152921" x="0.201172" y="0.837158" width="322" height="305" filterUnits="userSpaceOnUse" color-interpolation-filters="sRGB">
<feFlood flood-opacity="0" result="BackgroundImageFix"/>
<feColorMatrix in="SourceAlpha" type="matrix" values="0 0 0 0 0 0 0 0 0 0 0 0 0 0 0 0 0 0 127 0" result="hardAlpha"/>
<feOffset dy="4"/>
<feGaussianBlur stdDeviation="10"/>
<feComposite in2="hardAlpha" operator="out"/>
<feColorMatrix type="matrix" values="0 0 0 0 0 0 0 0 0 0 0 0 0 0 0 0 0 0 0.1 0"/>
<feBlend mode="normal" in2="BackgroundImageFix" result="effect1_dropShadow_307_152921"/>
<feBlend mode="normal" in="SourceGraphic" in2="effect1_dropShadow_307_152921" result="shape"/>
</filter>
</defs>
</svg>
